<svg width="68" height="68" viewBox="0 0 68 68" fill="none" xmlns="http://www.w3.org/2000/svg">
<g filter="url(#filter0_d_2761_3218)">
<circle cx="34" cy="30" r="30" fill="white"/>
<g clip-path="url(#clip0_2761_3218)">
<path d="M38.1667 30.7405C38.1667 32.9446 36.3733 34.738 34.169 34.738C31.9648 34.738 30.1714 32.9446 30.1714 30.7405C30.1714 28.5361 31.9648 26.7427 34.169 26.7427C34.9827 26.7427 35.7401 26.9878 36.3723 27.4071L38.0882 25.6911C37.005 24.8484 35.6446 24.3457 34.169 24.3457C30.6429 24.3457 27.7744 27.2144 27.7744 30.7405C27.7744 34.2665 30.6429 37.135 34.169 37.135C37.695 37.135 40.5637 34.2665 40.5637 30.7405C40.5637 29.2648 40.061 27.9044 39.2183 26.8212L37.5023 28.5372C37.9216 29.1693 38.1667 29.9267 38.1667 30.7405Z" fill="#EBA707"/>
<path d="M33.6041 30.1746L35.2038 28.5748C34.8904 28.4243 34.5394 28.3398 34.169 28.3398C32.8461 28.3398 31.7695 29.4164 31.7695 30.7396C31.7695 32.0627 32.8459 33.1391 34.169 33.1391C35.4922 33.1391 36.5688 32.0627 36.5688 30.7396C36.5688 30.3692 36.4843 30.0182 36.3339 29.7048L34.734 31.3045L33.6041 30.1746Z" fill="#EBA707"/>
<path d="M42.1139 23.9873L42.0632 23.9755L40.3549 25.6837C41.4837 27.0622 42.1618 28.823 42.1618 30.7395C42.1618 35.1466 38.5764 38.7321 34.1692 38.7321C29.762 38.7321 26.1767 35.1466 26.1767 30.7395C26.1767 26.3323 29.7622 22.7468 34.1692 22.7468C36.0858 22.7468 37.8465 23.4251 39.225 24.5537L40.9333 22.8454L40.9214 22.7948L40.3832 20.4915C38.57 19.388 36.4426 18.752 34.1692 18.752C27.5593 18.7517 22.1816 24.1294 22.1816 30.7395C22.1816 37.3494 27.5593 42.7271 34.1692 42.7271C40.7793 42.7271 46.157 37.3494 46.157 30.7395C46.157 28.4661 45.5209 26.3388 44.4173 24.5256L42.1139 23.9873Z" fill="#EBA707"/>
<path d="M44.9219 23.0032L49.4544 18.4707L47.1926 17.7168L46.4387 15.4551L41.9062 19.9876L42.4776 22.4318L44.9219 23.0032Z" fill="#EBA707"/>
</g>
</g>
<defs>
<filter id="filter0_d_2761_3218" x="0" y="0" width="68" height="68" filterUnits="userSpaceOnUse" color-interpolation-filters="sRGB">
<feFlood flood-opacity="0" result="BackgroundImageFix"/>
<feColorMatrix in="SourceAlpha" type="matrix" values="0 0 0 0 0 0 0 0 0 0 0 0 0 0 0 0 0 0 127 0" result="hardAlpha"/>
<feOffset dy="4"/>
<feGaussianBlur stdDeviation="2"/>
<feComposite in2="hardAlpha" operator="out"/>
<feColorMatrix type="matrix" values="0 0 0 0 0 0 0 0 0 0 0 0 0 0 0 0 0 0 0.25 0"/>
<feBlend mode="normal" in2="BackgroundImageFix" result="effect1_dropShadow_2761_3218"/>
<feBlend mode="normal" in="SourceGraphic" in2="effect1_dropShadow_2761_3218" result="shape"/>
</filter>
<clipPath id="clip0_2761_3218">
<rect width="27.2727" height="27.2727" fill="white" transform="translate(22.1816 15.4551)"/>
</clipPath>
</defs>
</svg>
