<svg width="68" height="68" viewBox="0 0 68 68" fill="none" xmlns="http://www.w3.org/2000/svg">
<g filter="url(#filter0_d_2761_3234)">
<circle cx="34" cy="30" r="30" fill="white"/>
<g clip-path="url(#clip0_2761_3234)">
<path d="M22.2561 21.651L24.168 22.7544C24.3388 22.8544 24.55 22.8554 24.7216 22.7568C24.8935 22.6582 24.9991 22.4751 24.9985 22.277C24.9983 22.079 24.8919 21.8967 24.7197 21.7986L22.8078 20.6951C22.5443 20.5454 22.2089 20.6364 22.0573 20.8991C21.9059 21.1617 21.9945 21.4974 22.2561 21.651Z" fill="#EBA707"/>
<path d="M24.1683 32.8315L22.2564 33.935C22.0842 34.033 21.9778 34.2154 21.9775 34.4134C21.977 34.6114 22.0826 34.7946 22.2545 34.8932C22.4261 34.9918 22.6373 34.9907 22.8081 34.8908L24.72 33.7873C24.8921 33.6893 24.9986 33.5069 24.9988 33.3089C24.9994 33.1109 24.8938 32.9277 24.7219 32.8291C24.5503 32.7305 24.3391 32.7316 24.1683 32.8315Z" fill="#EBA707"/>
<path d="M45.7434 33.935L43.8315 32.8315C43.6607 32.7316 43.4495 32.7305 43.2779 32.8291C43.106 32.9277 43.0004 33.1109 43.001 33.3089C43.0012 33.5069 43.1077 33.6893 43.2798 33.7873L45.1917 34.8908C45.3625 34.9907 45.5737 34.9918 45.7453 34.8932C45.9172 34.7946 46.0228 34.6114 46.0223 34.4134C46.022 34.2154 45.9156 34.033 45.7434 33.935Z" fill="#EBA707"/>
<path d="M43.5566 22.8279C43.6536 22.8282 43.7487 22.8026 43.8325 22.7541L45.7444 21.6506C45.9165 21.5526 46.0229 21.3702 46.0232 21.1722C46.0237 20.9742 45.9181 20.791 45.7465 20.6924C45.5746 20.5938 45.3634 20.5949 45.1926 20.6948L43.2807 21.7983C43.0647 21.9233 42.9591 22.1778 43.0237 22.4189C43.0884 22.6601 43.3071 22.8279 43.5566 22.8279Z" fill="#EBA707"/>
<path d="M39.2418 18.7154C39.5058 18.8679 39.843 18.7774 39.9955 18.5137L41.099 16.6018C41.2488 16.3383 41.1577 16.0029 40.895 15.8512C40.6324 15.6998 40.2967 15.7885 40.1432 16.05L39.0397 17.9619C38.8875 18.2257 38.978 18.5632 39.2418 18.7154Z" fill="#EBA707"/>
<path d="M34 17.3103C34.3047 17.3103 34.5517 17.0633 34.5517 16.7586V14.5517C34.5517 14.247 34.3047 14 34 14C33.6953 14 33.4482 14.247 33.4482 14.5517V16.7586C33.4482 17.0633 33.6953 17.3103 34 17.3103Z" fill="#EBA707"/>
<path d="M28.0047 18.5137C28.1027 18.6858 28.2851 18.7922 28.4831 18.7925C28.6811 18.793 28.8643 18.6874 28.9629 18.5156C29.0615 18.3439 29.0604 18.1327 28.9605 17.9619L27.857 16.05C27.7035 15.7885 27.3678 15.6998 27.1051 15.8512C26.8425 16.0029 26.7514 16.3383 26.9012 16.6018L28.0047 18.5137Z" fill="#EBA707"/>
<path d="M23.5174 27.7939C23.5174 27.4892 23.2703 27.2422 22.9657 27.2422H20.7588C20.4541 27.2422 20.207 27.4892 20.207 27.7939C20.207 28.0986 20.4541 28.3456 20.7588 28.3456H22.9657C23.2703 28.3456 23.5174 28.0986 23.5174 27.7939Z" fill="#EBA707"/>
<path d="M47.241 27.2422H45.0341C44.7295 27.2422 44.4824 27.4892 44.4824 27.7939C44.4824 28.0986 44.7295 28.3456 45.0341 28.3456H47.241C47.5457 28.3456 47.7928 28.0986 47.7928 27.7939C47.7928 27.4892 47.5457 27.2422 47.241 27.2422Z" fill="#EBA707"/>
<path d="M36.7585 39.9316H31.2412V41.0645C32.0456 41.0434 33.6135 41.0488 36.7585 41.0645V39.9316Z" fill="#EBA707"/>
<path d="M36.7585 42.1656C34.7948 42.1575 32.2999 42.1502 31.2412 42.1569V43.241H36.7585V42.1656Z" fill="#EBA707"/>
<path d="M32.3447 44.3457C32.3447 45.2598 33.0858 46.0009 33.9999 46.0009C34.914 46.0009 35.6551 45.2598 35.6551 44.3457H32.3447Z" fill="#EBA707"/>
<path d="M38.0948 34.9841C41.3553 33.1282 42.9599 29.3112 42.004 25.6835C41.0485 22.0555 37.7718 19.5243 34.0202 19.5156C30.2683 19.507 26.9803 22.0235 26.0081 25.6468C25.0358 29.2705 26.6228 33.0946 29.8747 34.9653C30.4949 35.3246 30.9491 35.9133 31.1393 36.6045L36.854 36.6204C37.0318 35.9308 37.4787 35.3413 38.0948 34.9841ZM32.3448 32.7584C32.1985 32.7584 32.0582 32.7002 31.9547 32.5967L28.8338 29.4755C28.6245 29.2592 28.6274 28.9149 28.8402 28.7021C29.0531 28.4892 29.3974 28.4863 29.6137 28.6956L32.3448 31.4265L38.1964 25.5744C38.4119 25.3589 38.7616 25.3589 38.9771 25.5744C39.1926 25.7899 39.1926 26.1396 38.9771 26.3551L32.7349 32.5967C32.6315 32.7002 32.4911 32.7584 32.3448 32.7584Z" fill="#EBA707"/>
<path d="M36.7585 37.7227L31.2412 37.709V38.8272H36.7585V37.7227Z" fill="#EBA707"/>
</g>
</g>
<defs>
<filter id="filter0_d_2761_3234" x="0" y="0" width="68" height="68" filterUnits="userSpaceOnUse" color-interpolation-filters="sRGB">
<feFlood flood-opacity="0" result="BackgroundImageFix"/>
<feColorMatrix in="SourceAlpha" type="matrix" values="0 0 0 0 0 0 0 0 0 0 0 0 0 0 0 0 0 0 127 0" result="hardAlpha"/>
<feOffset dy="4"/>
<feGaussianBlur stdDeviation="2"/>
<feComposite in2="hardAlpha" operator="out"/>
<feColorMatrix type="matrix" values="0 0 0 0 0 0 0 0 0 0 0 0 0 0 0 0 0 0 0.25 0"/>
<feBlend mode="normal" in2="BackgroundImageFix" result="effect1_dropShadow_2761_3234"/>
<feBlend mode="normal" in="SourceGraphic" in2="effect1_dropShadow_2761_3234" result="shape"/>
</filter>
<clipPath id="clip0_2761_3234">
<rect width="32" height="32" fill="white" transform="translate(18 14)"/>
</clipPath>
</defs>
</svg>
