<svg width="68" height="68" viewBox="0 0 68 68" fill="none" xmlns="http://www.w3.org/2000/svg">
<g filter="url(#filter0_d_2761_3177)">
<circle cx="34" cy="30" r="30" fill="white"/>
<g clip-path="url(#clip0_2761_3177)">
<path d="M18.8937 33.3135L20.9819 33.6558C21.3118 35.2548 21.9432 36.7764 22.8423 38.1392L21.6057 39.8651C21.3491 40.2144 21.3535 40.6911 21.6166 41.0356C21.9284 41.4167 22.2597 41.7815 22.6091 42.1285C22.9617 42.4816 23.3251 42.807 23.6994 43.1216C24.0441 43.3852 24.5214 43.3896 24.8709 43.1325L26.5958 41.8953C27.9573 42.7949 29.4778 43.4267 31.0759 43.7567L31.4176 45.8466C31.4827 46.2741 31.8238 46.6064 32.2529 46.6602C32.5501 46.6938 32.8495 46.7144 33.1554 46.7296C33.304 46.7369 33.4491 46.6832 33.5572 46.5811C33.6653 46.4789 33.727 46.3371 33.7282 46.1883V41.8416C33.7266 41.5486 33.4939 41.3091 33.201 41.2992C27.7199 41.0151 23.4214 36.488 23.4214 30.9995C23.4214 25.511 27.7199 20.984 33.201 20.6998C33.4939 20.6899 33.7266 20.4505 33.7282 20.1574V15.8145C33.7275 15.6658 33.6661 15.5239 33.5583 15.4215C33.4505 15.3191 33.3055 15.2651 33.157 15.2721C32.8522 15.2847 32.5508 15.3061 32.2528 15.3361C31.8237 15.3945 31.4839 15.7281 31.4176 16.1562L31.0758 18.246C29.4778 18.5765 27.9573 19.2085 26.5957 20.108L24.8709 18.8703C24.5213 18.6131 24.044 18.6175 23.6993 18.8812C23.3192 19.1934 22.9553 19.5249 22.6091 19.8743C22.257 20.2187 21.9256 20.5837 21.6165 20.9672C21.3524 21.3121 21.348 21.79 21.6056 22.1398L22.8423 23.8657C21.9434 25.228 21.312 26.749 20.9819 28.3475L18.8937 28.6892C18.4661 28.7545 18.1338 29.0958 18.0801 29.525C17.9733 30.4984 17.9733 31.4806 18.0801 32.4539C18.1283 32.8902 18.4606 33.2414 18.8937 33.3135Z" fill="#EBA707"/>
<path d="M33.2094 22.8813C28.9244 23.1527 25.5879 26.7073 25.5879 31.0009C25.5879 35.2944 28.9244 38.849 33.2094 39.1204C33.3457 39.1261 33.4784 39.0755 33.5764 38.9806C33.6744 38.8856 33.7292 38.7546 33.7279 38.6182V23.3835C33.7292 23.2471 33.6745 23.1161 33.5764 23.0211C33.4784 22.9262 33.3457 22.8756 33.2094 22.8813Z" fill="#EBA707"/>
<path d="M37.5244 23.4074H34.8125V24.4922H37.5244C38.422 24.4895 39.1489 23.7626 39.1516 22.865V19.5109C39.8988 19.2467 40.347 18.4827 40.213 17.7016C40.0789 16.9205 39.4017 16.3496 38.6092 16.3496C37.8167 16.3496 37.1395 16.9205 37.0054 17.7016C36.8714 18.4827 37.3196 19.2467 38.0668 19.5109V22.865C38.0668 23.1646 37.824 23.4074 37.5244 23.4074Z" fill="#EBA707"/>
<path d="M34.8125 26.6629H40.2364C40.536 26.6629 40.7788 26.4201 40.7788 26.1205C40.7788 25.821 40.536 25.5781 40.2364 25.5781H34.8125V26.6629Z" fill="#EBA707"/>
<path d="M34.8125 38.5945H37.5244C37.824 38.5945 38.0668 38.8374 38.0668 39.1369V42.4911C37.3197 42.7552 36.8715 43.5192 37.0055 44.3003C37.1395 45.0814 37.8167 45.6523 38.6092 45.6523C39.4017 45.6523 40.079 45.0814 40.213 44.3003C40.347 43.5192 39.8988 42.7552 39.1516 42.4911V39.1369C39.149 38.2394 38.4221 37.5124 37.5245 37.5098H34.8126V38.5945H34.8125Z" fill="#EBA707"/>
<path d="M42.9483 33.1699H34.8125V34.2547H42.9483C43.2479 34.2547 43.4908 34.4975 43.4908 34.7971V37.6089C42.7436 37.873 42.2954 38.637 42.4294 39.4181C42.5634 40.1992 43.2406 40.7701 44.0332 40.7701C44.8256 40.7701 45.5029 40.1992 45.6369 39.4181C45.7709 38.637 45.3228 37.873 44.5756 37.6089V34.7971C44.5728 33.8995 43.8459 33.1726 42.9483 33.1699Z" fill="#EBA707"/>
<path d="M48.3723 29.375C47.6852 29.3778 47.0739 29.812 46.8449 30.4598H34.8125V31.5445H46.8449C47.122 32.3226 47.939 32.7689 48.7435 32.5816C49.548 32.3943 50.0838 31.6331 49.9888 30.8126C49.8939 29.9922 49.1982 29.3735 48.3723 29.375Z" fill="#EBA707"/>
<path d="M40.7788 35.8823C40.7788 35.5827 40.536 35.3398 40.2364 35.3398H34.8125V36.4246H40.2364C40.536 36.4247 40.7788 36.1818 40.7788 35.8823Z" fill="#EBA707"/>
<path d="M44.5755 27.2055V24.3937C45.3227 24.1295 45.7709 23.3655 45.6369 22.5844C45.5029 21.8033 44.8257 21.2324 44.0331 21.2324C43.2407 21.2324 42.5634 21.8033 42.4294 22.5844C42.2954 23.3655 42.7436 24.1295 43.4907 24.3937V27.2055C43.4907 27.505 43.2479 27.7479 42.9483 27.7479H34.8125V28.8326H42.9483C43.846 28.8299 44.5729 28.103 44.5755 27.2055Z" fill="#EBA707"/>
</g>
</g>
<defs>
<filter id="filter0_d_2761_3177" x="0" y="0" width="68" height="68" filterUnits="userSpaceOnUse" color-interpolation-filters="sRGB">
<feFlood flood-opacity="0" result="BackgroundImageFix"/>
<feColorMatrix in="SourceAlpha" type="matrix" values="0 0 0 0 0 0 0 0 0 0 0 0 0 0 0 0 0 0 127 0" result="hardAlpha"/>
<feOffset dy="4"/>
<feGaussianBlur stdDeviation="2"/>
<feComposite in2="hardAlpha" operator="out"/>
<feColorMatrix type="matrix" values="0 0 0 0 0 0 0 0 0 0 0 0 0 0 0 0 0 0 0.25 0"/>
<feBlend mode="normal" in2="BackgroundImageFix" result="effect1_dropShadow_2761_3177"/>
<feBlend mode="normal" in="SourceGraphic" in2="effect1_dropShadow_2761_3177" result="shape"/>
</filter>
<clipPath id="clip0_2761_3177">
<rect width="32" height="32" fill="white" transform="translate(18 15)"/>
</clipPath>
</defs>
</svg>
