<svg width="207" height="61" viewBox="0 0 207 61" fill="none" xmlns="http://www.w3.org/2000/svg">
<path d="M23.1321 20.3008L12.3198 5.2202H5.04227V55.1549H9.77265V10.1768L23.7559 28.2629L43.4051 0H58.5839V42.2889H49.487V55.1549H53.4897V46.7709H58.5839V60.3223H44.3928V42.2889H25.2633L49.487 8.33123V37.1214H53.4897V5.2202H46.0562L24.0158 36.9633L14.9189 25.2046V60.3751H0V0.105459H14.9189L26.251 15.9243L23.184 20.3535L23.1321 20.3008ZM35.1919 37.1214H44.3408V24.3082L35.1919 37.1214Z" fill="#EBA707"/>
<path d="M79.331 20.4052H78.0835V25.309H74.8606V9.85933H79.331C81.2024 9.85933 82.6059 10.3339 83.6456 11.2303C84.6332 12.1267 85.153 13.3922 85.153 14.9741C85.153 16.556 84.6852 17.8742 83.6975 18.9288C82.7619 19.9306 81.3064 20.4579 79.331 20.4579V20.4052ZM78.0835 12.8649V17.3996H79.435C80.9945 17.3996 81.7222 16.6614 81.7222 15.1323C81.7222 14.3413 81.5143 13.814 81.1504 13.4449C80.7865 13.0758 80.1628 12.9176 79.2791 12.9176H78.0835V12.8649ZM90.975 15.8177H96.1213V18.8233H90.975V22.2507H96.849V25.2563H87.7522V9.80661H96.7971V12.8122H90.975V15.765V15.8177ZM103.503 25.2563H100.28V9.80661H103.503V16.6614L108.545 9.80661H112.08L106.674 17.0305L112.808 25.2563H108.753L103.451 17.8742V25.2563H103.503ZM123.516 25.2563V12.8122H119.409V15.8177C119.409 19.0342 118.993 21.4598 118.162 23.0944C117.33 24.729 116.03 25.5199 114.211 25.5199C113.743 25.5199 113.327 25.4672 113.067 25.3618V22.3562C113.535 22.3562 113.847 22.3562 114.003 22.3035C114.939 22.0925 115.563 21.4071 115.823 20.247C116.082 19.1397 116.238 17.1887 116.238 14.4468V9.75388H126.739V25.2036H123.516V25.2563ZM138.799 23.1471H133.029L132.093 25.2563H128.714L135.784 9.49023H136.096L143.321 25.2563H139.682L138.799 23.1471ZM135.94 16.345L134.328 20.1416H137.551L135.992 16.345H135.94ZM148.259 9.4375L153.406 19.5615L158.552 9.4375H159.02L163.074 25.2036H159.695L157.616 17.3996L153.51 25.2036H153.042L148.987 17.3469L146.908 25.2036H143.685L147.74 9.4375H148.207H148.259ZM174.874 18.6124H168.636V25.2036H165.414V9.75388H168.636V15.6068H174.874V9.75388H178.097V25.2036H174.874V18.6124ZM190.157 23.0944H184.387L183.451 25.2036H180.072L187.142 9.4375H187.454L194.679 25.2036H191.041L190.157 23.0944ZM187.298 16.2923L185.687 20.0888H188.909L187.35 16.2923H187.298ZM203.776 25.1508V19.9306H202.321L199.15 25.1508H195.147L199.046 19.087C198.214 18.876 197.59 18.3488 197.071 17.5578C196.551 16.7669 196.291 15.8705 196.291 14.8686C196.291 13.234 196.811 11.9158 197.798 11.0194C198.838 10.123 200.086 9.64842 201.645 9.64842H206.999V25.0981H203.776V25.1508ZM203.776 16.9251V12.7067H201.853C201.177 12.7067 200.657 12.8649 200.242 13.234C199.878 13.6031 199.67 14.1304 199.67 14.8159C199.67 15.3959 199.878 15.9232 200.242 16.2923C200.605 16.6614 201.125 16.8723 201.801 16.8723H203.724L203.776 16.9251ZM78.0315 50.4082H74.8086V34.9585H78.0315V41.8133L83.0738 34.9585H86.6085L81.2024 42.1824L87.3363 50.4082H83.2817L77.9795 43.0261V50.4082H78.0315ZM91.7028 42.7097C91.7028 44.0279 92.1187 45.2407 92.9504 46.2426C93.7821 47.2444 94.9777 47.7717 96.4852 47.7717C97.8367 47.7717 98.9803 47.2972 99.864 46.348C100.748 45.3989 101.216 44.1861 101.216 42.7624C101.216 41.4442 100.8 40.2842 99.916 39.2823C99.0843 38.2804 97.9407 37.7531 96.4332 37.7531C95.0297 37.7531 93.8861 38.2277 93.0024 39.1768C92.1187 40.126 91.6508 41.3387 91.6508 42.8152L91.7028 42.7097ZM88.324 42.7097C88.324 40.4951 89.0517 38.5441 90.6112 37.0149C92.1706 35.4331 94.146 34.6948 96.5371 34.6948C97.8367 34.6948 99.0323 34.9585 100.124 35.4331C101.216 35.9076 102.099 36.5404 102.723 37.384C104.023 38.9659 104.646 40.7587 104.646 42.7624C104.646 45.0298 103.867 46.928 102.359 48.4572C100.852 50.0391 98.9283 50.7773 96.5371 50.7773C94.042 50.7773 92.0667 49.9863 90.5592 48.4572C89.1037 46.8753 88.324 44.9771 88.324 42.7624V42.7097ZM111.196 34.6421L116.342 44.7661L121.489 34.6421H121.956L126.011 50.4082H122.632L120.553 42.6042L116.446 50.4082H115.978L111.924 42.5515L109.845 50.4082H106.622L110.676 34.6421H111.144H111.196ZM138.643 37.9641H132.353V50.4082H129.13V34.9585H141.918V50.4082H138.695V37.9641H138.643ZM154.653 48.299H148.883L147.948 50.4082H144.569L151.638 34.6421H151.95L159.176 50.4082H155.537L154.653 48.299ZM151.794 41.4969L150.183 45.2934H153.406L151.846 41.4969H151.794ZM171.339 43.817H165.102V50.4082H161.879V34.9585H165.102V40.8114H171.339V34.9585H174.562V50.4082H171.339V43.817ZM188.754 50.4082V41.7606L179.709 50.7773H179.241V35.0112H182.464V43.6588L191.561 34.6421H192.028V50.4082H188.805H188.754ZM203.776 50.4082V45.188H202.321L199.15 50.4082H195.147L199.046 44.3443C198.214 44.1334 197.59 43.6061 197.071 42.8152C196.551 42.0242 196.291 41.1278 196.291 40.126C196.291 38.4914 196.811 37.1731 197.798 36.2767C198.838 35.3803 200.086 34.9058 201.645 34.9058H206.999V50.3555H203.776V50.4082ZM203.776 42.1824V37.9641H201.853C201.177 37.9641 200.657 38.1223 200.242 38.4914C199.878 38.8605 199.67 39.3878 199.67 40.0732C199.67 40.6533 199.878 41.1806 200.242 41.5497C200.605 41.9188 201.125 42.1297 201.801 42.1297H203.724L203.776 42.1824Z" fill="#FEFEFE"/>
</svg>
